<svg width="12" height="21" viewBox="0 0 12 21" fill="none" xmlns="http://www.w3.org/2000/svg"> <path d="M9 10.086V4.5H11V2.5C11 1.96957 10.7893 1.46086 10.4142 1.08579C10.0391 0.710714 9.53043 0.5 9 0.5H3C2.46957 0.5 1.96086 0.710714 1.58579 1.08579C1.21071 1.46086 1 1.96957 1 2.5V4.5H3V10.086L0.293001 11.793C0.199959 11.8857 0.126171 11.9959 0.0758854 12.1172C0.0256001 12.2386 -0.000189449 12.3687 1.04767e-06 12.5V14.5C1.04767e-06 14.7652 0.105358 15.0196 0.292894 15.2071C0.480431 15.3946 0.734784 15.5 1 15.5H5V18.5L6 20.5L7 18.5V15.5H11C11.2652 15.5 11.5196 15.3946 11.7071 15.2071C11.8946 15.0196 12 14.7652 12 14.5V12.5C12.0002 12.3687 11.9744 12.2386 11.9241 12.1172C11.8738 11.9959 11.8 11.8857 11.707 11.793L9 10.086Z" fill="url(#paint0_linear_3490_495)"></path> <defs> <linearGradient id="paint0_linear_3490_495" x1="0.446788" y1="0.5" x2="16.6784" y2="12.9948" gradientUnits="userSpaceOnUse"> <stop stop-color="#D1B75B"></stop> <stop offset="0.15625" stop-color="#F7E685"></stop> <stop offset="0.317708" stop-color="#D8C05E"></stop> <stop offset="0.46875" stop-color="#DFBE61"></stop> <stop offset="0.625" stop-color="#C4A54B"></stop> <stop offset="0.776042" stop-color="#AC8A30"></stop> <stop offset="0.901042" stop-color="#AA8533"></stop> <stop offset="1" stop-color="#C7A34D"></stop> </linearGradient> </defs> </svg>