<svg width="20" height="21" viewBox="0 0 20 21" fill="none" xmlns="http://www.w3.org/2000/svg"> <path d="M18.0404 14.1386L15.2125 13.8157C14.88 13.7766 14.5429 13.8135 14.2267 13.9234C13.9104 14.0333 13.6232 14.2134 13.3866 14.4503L11.338 16.4989C8.17742 14.8914 5.60846 12.3225 4.00102 9.16188L6.06073 7.10218C6.53947 6.62344 6.77327 5.95543 6.69534 5.27628L6.37246 2.47063C6.30934 1.92751 6.04869 1.42657 5.64014 1.06319C5.23159 0.699802 4.70367 0.499352 4.15689 0.500002H2.23079C0.972706 0.500002 -0.0738448 1.54655 0.00408987 2.80464C0.594166 12.3127 8.19836 19.9057 17.6953 20.4958C18.9533 20.5737 19.9999 19.5272 19.9999 18.2691V16.343C20.011 15.2185 19.1649 14.2722 18.0404 14.1386Z" fill="url(#paint0_linear_3490_491)"></path> <defs> <linearGradient id="paint0_linear_3490_491" x1="0.744647" y1="0.5" x2="17.0269" y2="21.3897" gradientUnits="userSpaceOnUse"> <stop stop-color="#D1B75B"></stop> <stop offset="0.15625" stop-color="#F7E685"></stop> <stop offset="0.317708" stop-color="#D8C05E"></stop> <stop offset="0.46875" stop-color="#DFBE61"></stop> <stop offset="0.625" stop-color="#C4A54B"></stop> <stop offset="0.776042" stop-color="#AC8A30"></stop> <stop offset="0.901042" stop-color="#AA8533"></stop> <stop offset="1" stop-color="#C7A34D"></stop> </linearGradient> </defs> </svg>